<svg width="131" height="158" viewBox="0 0 131 158" fill="none" xmlns="http://www.w3.org/2000/svg">
<path d="M11.6027 94.5309C11.748 94.7069 14.3054 96.1402 14.7547 96.3814C31.2267 105.251 47.0947 115.043 63.3507 124.269C64.5041 124.924 65.2254 125.333 66.44 124.453C79.616 116.726 92.7267 108.85 106.035 101.35C109.705 99.2814 114.429 97.2761 117.812 94.9975C118.076 94.8199 118.353 94.6735 118.528 94.3923L118.533 34.9042C117.575 33.9225 116.255 33.5282 115.1 32.8615C99.7627 24.0014 84.2227 15.4907 69.0201 6.42274C68.0921 5.8694 67.1961 5.20142 66.3814 4.71875C64.4827 3.59608 63.5467 5.06675 62.144 5.90275C61.0027 6.58275 59.8467 7.26808 58.6987 7.93341C43.0027 17.0134 27.0947 25.7334 11.452 34.9053L11.3507 93.3626C11.3601 93.7547 11.336 94.2053 11.6027 94.5309ZM64.9427 8.09481e-05L65.5014 0.112076L122.228 32.7214L122.413 33.4787L122.309 96.4735L65.0534 129.284L7.72136 96.4266L7.67468 32.8282L64.9427 8.09481e-05Z" fill="#231F20"/>
<path d="M38.7427 44.9148L38.8333 43.784C38.324 43.7121 38.4654 44.4924 38.248 44.5507C37.3934 44.7788 36.1813 44.172 36.0413 44.1933C35.8226 44.2267 35.5387 44.6788 35.1547 44.5361C35.3333 44.1439 35.72 43.8747 36.0894 43.6788C37.024 43.1804 37.908 43.4908 38.36 42.5548C36.6853 41.1976 34.5627 41.9095 33.268 43.4053C33.1667 40.2137 36.5933 40.0736 39.0093 40.4001C41.872 40.7867 41.1093 44.4523 38.7427 44.9148Z" fill="#231F20"/>
<path d="M42.4867 52.6282C42.3334 52.7225 41.9561 52.6266 41.7227 52.7053C40.6787 53.0533 39.7827 53.5533 38.988 54.3199C38.796 54.5053 38.4534 54.5053 38.5547 54.9241C38.74 55.1017 40.4547 53.8438 40.8201 53.6985C41.9841 53.2345 43.628 53.8975 44.988 53.6855L47.24 55.1121C46.432 55.0839 45.8627 54.4855 45.052 54.3746C44.1587 54.2522 42.2054 54.2683 41.2841 54.3506C39.8734 54.4771 38.7587 55.5225 37.2333 55.4907C37.1333 53.7839 39.1054 53.5094 40.3147 52.6266C40.812 52.2642 42.0067 50.6522 42.628 51.5137C42.7907 51.7386 42.6427 52.5309 42.4867 52.6282Z" fill="#231F20"/>
<path d="M48.9387 55.301C47.1187 54.4521 45.5587 52.9172 43.5054 52.6198C43.0734 52.112 43.3961 50.8521 44.2174 51.2385C44.5027 51.3734 45.0907 52.1828 45.4507 52.465C45.8761 52.8 46.5374 53.2974 46.9827 53.577C47.68 54.0136 48.84 53.977 48.9387 55.301Z" fill="#231F20"/>
<path d="M40.6307 50.5803C40.04 48.912 44.7481 49.3651 45.0841 49.6213C45.4254 49.8828 45.4734 50.4642 45.0454 50.5678C44.7947 50.6292 44.4374 50.376 44.132 50.3959C43.7867 50.4188 43.508 50.7453 43.1654 50.7708C42.7054 50.8052 42.4067 50.4136 42.0333 50.3907C41.5293 50.359 41.1893 50.8891 40.6307 50.5803Z" fill="#231F20"/>
<path d="M44.4067 56.0589C44.7347 56.3281 43.1481 57.1813 42.9921 57.324L41.576 56.1505C42.5054 55.5958 43.4214 56.112 44.4067 56.0589Z" fill="#231F20"/>
<path d="M82.1773 56.2479L78.1693 57.0545L76.8907 57.7556C77.2374 57.3717 77.5373 56.4468 78.008 56.3223C78.572 56.1744 78.8827 56.4239 79.2267 56.3812C79.5534 56.34 79.824 56.0707 80.38 56.0411C81.0067 56.0092 81.564 56.228 82.1773 56.2479Z" fill="#231F20"/>
<path d="M61.644 98.6853C62.108 99.0733 63.436 99.3187 63.6574 100.317C62.7614 101.632 55.424 107.321 55.424 108.274C55.6827 108.885 57.092 110.435 57.7213 110.433C58.6013 110.433 59.0454 109.186 59.52 108.657C60.876 107.141 61.716 106.065 62.9187 104.501C63.6013 103.61 64.3814 102.81 65.1067 101.956L72.364 110.359C73.0707 110.741 75.064 108.598 74.9734 108.133C74.9427 107.979 74.6387 107.593 74.5094 107.445C72.9 105.605 70.744 104.04 68.9534 102.425C68.668 102.168 66.9387 100.462 66.9107 100.316C66.7533 99.5103 68.4614 98.8067 68.8734 98.3707C70.4014 96.7531 70.6374 94.0733 73.5587 96.452C74.1587 95.8291 76.0667 94.7307 75.916 93.7759C75.8053 93.0769 71.8254 89.2588 70.9707 89.3348C70.484 89.3785 68.7627 91.2649 68.7613 91.6556C71.2013 94.5572 68.372 94.8837 66.8747 96.5597C65.9333 97.6145 65.6507 99.7493 64.1493 97.5973C63.924 97.2717 63.904 96.8479 63.6773 96.5597C63.3653 96.1624 61.6693 95.2255 61.6053 94.8411C61.5467 94.4879 62.2253 94.364 62.136 93.7769C62.0587 93.2613 61.1053 92.4597 61.0547 92.1931C61.0053 91.9239 61.3413 91.6692 61.38 91.4223C61.4693 90.8665 59.8654 89.0692 59.3094 89.1905C58.8774 89.2853 58.5507 89.9239 58.1814 90.1316C57.8694 90.3077 57.468 90.2827 57.0667 90.5291C56.8507 90.6624 54.2174 93.4479 54.1267 93.6425C54.012 93.8921 54.012 93.9531 54.1267 94.2009C54.2174 94.3957 57.0654 97.0307 57.2574 97.1239C57.3854 97.1864 58.736 97.6067 58.8147 97.5864L59.9613 96.6744C60.5227 96.7717 61.3307 98.4223 61.644 98.6853ZM37.2294 78.7223C36.3854 78.416 35.5067 78.1291 34.588 78.1545C34.4573 78.652 34.9774 78.5947 35.3014 78.6613C35.68 78.7411 36.2347 78.8145 36.6267 78.8531C36.8347 78.8744 37.2694 79.0769 37.2294 78.7223ZM79.912 71.4493C79.968 72.4291 79.912 73.4801 79.912 74.4707C79.912 74.5025 80.1667 74.7681 80.288 74.7531C80.3187 73.4812 80.2574 72.1853 80.0534 70.928C80.0254 70.7588 79.9721 70.3613 79.7254 70.4103C79.5561 70.7879 79.9 71.2384 79.912 71.4493ZM53.472 62.4801C53.0373 62.3707 53.1614 62.5597 53.04 62.7171C50.5827 65.8947 44.7174 69.9359 40.5787 68.4785C37.616 67.4359 35.656 65.3812 33.6987 63.0957C33.5827 62.9597 33.7053 62.7384 33.2667 62.8572C33.0987 65.1649 33.7094 67.4223 33.2174 69.7009C33.0974 70.2545 32.6867 70.504 32.6827 71.2572C32.66 75.6597 38.044 77.6291 40.72 80.0468C41.6267 80.8649 42.308 81.8373 43.18 82.6827C44.476 81.464 45.5107 79.9769 46.86 78.8119C49.3587 76.6531 51.2614 76.0411 53.004 72.8692C54.6987 69.7853 53.708 69.8769 53.4747 66.9145C53.3613 65.4785 53.5533 63.928 53.472 62.4801ZM84.0654 56.2504C84.008 56.1827 82.6827 55.5531 82.4707 55.4812C80.888 54.952 80.6627 55.1545 79.2413 55.4812C78.9107 55.5572 78.5133 55.428 78.1547 55.528C77.2613 55.7785 76.3787 57.7624 76.3347 58.6332C76.2587 60.1343 77.6587 61.0479 78.76 59.8983L78.588 59.0812C79.512 58.6665 81.6 58.5264 82.32 59.3135C82.6134 59.6332 82.3853 60.2812 83.116 60.5145C83.6507 60.6853 85.132 60.2597 85.4747 59.8212C86.1587 58.9493 85.1081 56.3692 83.6894 56.8103C83.5947 56.5316 84.424 56.6717 84.0654 56.2504ZM28.544 49.0707V52.1864C28.544 52.34 28.832 53.4572 28.9107 53.7077C29.0733 54.2255 29.88 55.8707 30.3413 56.0556C30.7493 56.1359 30.6307 55.8649 30.628 55.5812C30.6267 55.3665 30.4507 54.0717 30.3987 54.0135C30.332 53.9384 29.9734 53.9744 29.7734 53.7931C28.8947 52.9983 31.216 48.8588 29.2027 48.3624L28.7333 48.7879C29.136 49.0077 29.5214 49.2921 29.4867 49.8255L28.544 49.0707ZM114.471 72.2983V37.2665C106.424 32.2239 98.0267 27.7692 89.7934 23.0412C82.2547 18.7119 74.5493 13.6479 66.8187 9.75586C64.864 8.77186 65.0667 8.9532 63.1654 9.9452C56.5987 13.3745 50.06 17.6439 43.5907 21.3412C35.036 26.2292 26.04 30.8837 17.6534 36.0067C17.2387 36.2597 15.7027 37.0425 15.7027 37.4556V76.8307C15.912 76.8665 16.0814 76.8051 16.276 76.7436C18.432 76.0676 21.6213 74.6067 23.7613 73.6531C24.812 73.1853 27.6773 71.9931 28.408 71.364C28.9533 70.8931 29.816 68.3545 30.6227 67.4853C31.3227 66.7307 32.2974 66.7223 32.8627 65.9316C32.5107 64.4264 32.888 62.8348 32.6133 61.3373C32.5413 60.9479 31.1614 56.9373 31.02 56.74C30.9294 56.6135 30.1934 56.5468 29.7707 56.2479C28.148 55.104 27.0134 49.9359 28.0787 48.3212C28.4547 47.752 28.94 47.6999 29.5 47.4436C29.4213 44.7837 29.416 42.1827 30.2467 39.6291L30.9987 40.7597C30.8254 39.0759 31.4307 37.4504 32.1587 35.9717C36.5947 26.9679 45.956 25.4225 51.6613 34.1681L55.7374 41.3264C55.9774 40.3025 55.2773 39.8468 54.8853 39.064C52.8507 34.9957 50.9627 30.1197 46.4254 28.2624C40.6107 25.8825 35.464 29.6067 32.4307 34.3545L31.3787 36.228C31.9454 32.5957 33.7227 29.3759 36.916 27.5092C42.328 24.3439 46.06 24.7519 51.1894 28.2197C57.44 32.4436 57.2 40.8837 57.0493 47.6411C57.08 47.8171 57.7307 47.6545 58.0987 48.1264C59.116 49.4307 58.0013 52.8135 57.8133 54.3572C57.3147 54.3212 57.816 53.616 57.816 53.5077V48.9759C57.816 48.3223 56.9374 48.4332 56.5427 48.7425L55.74 51.3359C55.6107 49.4947 55.6214 44.4545 54.4227 43.1145C54.2907 42.9681 53.0814 42.2717 52.9987 42.2759C52.556 42.2999 53.0307 43.3025 52.904 43.5921L51.6467 42.4921C50.5013 41.9411 49.352 41.9504 48.212 42.4864L48.184 43.4051C49.3494 43.2307 50.5134 43.8264 51.2067 44.7255L47.9947 44.728V43.9692L47.2413 43.9717C46.8387 44.4373 48.1333 44.8015 47.8053 45.104C47.4413 45.4384 45.8307 43.9921 45.6267 43.4135C44.2747 39.6025 49.7854 40.2947 51.868 41.1373C52.0747 40.64 51.4147 39.7307 51.0987 39.2624C47.4334 33.8384 40.984 33.8493 36.284 38.0197C35.1507 39.0255 34.4427 40.2681 33.46 41.2373C32.9827 41.7092 32.1547 42.0812 31.9 42.5119C30.66 44.6092 29.688 54.2864 31.752 55.94C31.8373 56.0077 32.0974 55.8837 32.22 56.0504C32.564 56.5145 32.6147 57.5733 33.3627 57.9452L33.736 57.5692L35.0973 58.8692C35.8373 59.0649 36.1374 57.7025 36.4294 57.2452C36.5494 57.0588 36.412 56.9077 36.852 57.0025C36.5987 58.928 37.2267 60.364 39.3773 59.8239L39.5921 60.2187C40.7001 59.4931 42.18 59.2212 42.812 57.9384L43.2454 57.9827C43.58 59.4597 45.6827 58.964 45.732 60.2135C46.096 60.3077 46.2413 59.8264 46.5467 59.8613C46.7813 59.8879 46.9973 60.2212 47.2973 60.1717C47.3827 60.1588 48.7707 59.5692 48.888 59.4999C49.292 59.264 49.4614 58.9812 49.5094 58.5135L50.5707 59.252C51.328 58.5597 51.6214 59.216 51.8707 59.2223C52.0187 59.2264 53.5427 57.8504 53.7427 57.5556L55.7387 53.6025V56.6239C56.484 56.5077 56.8934 55.628 57.3454 55.1145C57.5867 55.5332 57.0374 56.4197 56.6934 56.728C56.3054 57.0744 55.6627 57.14 55.5333 57.3135C55.408 57.4785 54.0133 60.8649 53.9387 61.1504C53.808 61.6556 53.752 65.2545 53.9333 65.5119C56.768 65.9879 57.7053 68.2649 59.088 70.416C65.0387 72.7588 72.42 74.4556 76.508 79.7624C77.5227 81.0801 78.0493 82.6921 79.064 84.0067C79.5413 84.2425 79.3254 83.0092 79.296 82.8291C78.624 78.6255 76.6347 78.2545 74.1454 75.7051C73.128 74.6613 74.2307 74.464 74.912 73.6255L79.684 69.9973C79.96 69.1879 79.304 68.7239 78.78 68.2359C78.0253 67.5316 77.1493 67.1135 76.416 66.2588C74.1107 63.5717 73.2414 58.5504 72.9267 55.1145L73.7027 57.0733C74.1187 57.7009 74.4827 58.7717 75.3787 58.6999C75.0267 56.952 75.8267 56.5973 76.596 55.4801C77.0534 54.8135 77.2293 53.8009 78.2107 53.5983L78.1147 53.2223C77.4974 53.1812 77.008 53.6425 76.7067 52.752C76.72 52.4905 78.4053 52.3359 78.816 52.2239C79.104 52.1452 79.336 51.8316 79.6667 51.7531C80.704 51.5077 81.7334 51.8931 81.7987 53.0343C81.6427 53.1947 79.4547 51.8009 79.3454 53.2239C80.5507 53.0223 81.4214 53.8223 82.4534 54.1759C83.2347 54.4436 84.1093 54.4649 84.8333 54.8187C86.952 55.8504 86.1507 58.1067 86.984 58.7187C87.48 59.0827 87.8947 58.6493 88.4014 58.5973C91.0054 58.3264 94.0333 57.2307 95.1107 54.5425L95.9627 51.904C95.8747 52.5187 96.1254 53.0905 96.16 53.6889C96.7054 62.9239 90.3893 63.9384 85.48 69.6531C83.9147 71.4744 82.8454 73.6468 81.4374 75.5769C83.068 77.3119 86.3667 76.5827 88.4507 76.0223C93.2694 74.7264 98.5733 71.2801 101.075 66.9291C101.065 66.7931 99.1293 65.7812 98.808 65.3947C97.52 63.8504 97.7093 57.5717 97.664 55.4905H96.72L96.8094 55.1171C97.5214 55.6197 98.2747 54.8889 98.7067 54.3624C99.852 52.964 101.369 48.3572 99.8413 46.9879C98.8693 46.116 98.3973 46.9707 97.7413 46.9999C97.116 47.0264 97.0813 46.2103 96.452 47.1983C96.2107 47.5769 96.3333 48.2572 95.7773 48.1255C94.9507 46.4425 94.868 42.5348 93.5147 41.416C92.2227 40.3493 89.7867 41.2921 88.2213 41.14L88.5987 42.2692C87.6307 42.1624 84.5414 42.3853 84.1254 43.3425L84.2493 44.0744C84.668 43.6556 87.8253 44.352 87.2747 44.916C86.4773 44.3692 86.3053 45.0676 85.8107 45.2436C85.124 45.4879 83.3587 45.6373 82.6894 45.4425C82.4521 45.3733 81.024 44.316 80.8814 44.0411C79.6054 41.5921 83.6134 41.4239 85.0094 40.8556C82.272 38.8692 80.4253 36.8239 76.8187 38.5171C74.5093 39.6025 73.5267 41.3556 72.74 43.6905C72.884 43.8785 72.896 43.9025 73.1267 43.8983C73.7894 43.8864 74.496 43.5359 75.2787 43.5879C78.064 43.7744 78.3267 48.1452 75.024 47.7255L74.8 47.0015L74.2467 46.9905L74.2454 47.7493H73.4921C73.4881 47.3707 73.4253 46.9801 73.588 46.6171C73.7413 46.2717 74.88 45.8332 74.6227 45.4837C71.5574 44.7973 73.004 47.1171 72.8307 48.8801L71.5587 44.5812C69.3721 43.8759 66.9507 42.9051 66.3613 40.4307C65.5373 36.9597 67.696 31.5931 71.1547 30.2092C77.8867 27.5172 83.8587 39.0692 90.4413 39.9556C91.32 40.0744 92.2173 39.9025 93.0413 40.0015C95.1347 40.252 97.2947 44.0545 98.452 45.5436C98.6147 45.7531 98.64 45.9359 98.984 45.8588C99.14 42.3504 98.8334 39.0837 96.988 36.0545C96.3867 35.0676 95.4533 34.1931 94.864 33.2681C94.344 32.4493 93.8667 30.8572 93.324 30.2744C92.5267 29.4187 85.6987 27.6185 84.328 27.5612C83.8053 27.5385 83.1507 27.8827 82.5561 27.728C82.5894 27.4519 83.232 27.2825 83.46 27.2172C85.4854 26.6385 92.3894 28.2411 93.884 29.7145C94.6414 30.4613 97.384 34.5316 98.004 35.604C99.204 37.6769 99.7427 39.9812 99.928 42.3681C100.012 43.4504 99.748 44.9785 99.9333 45.9504C100.015 46.3733 100.665 46.84 100.911 47.428C101.545 48.9452 100.992 51.3103 100.344 52.7889C99.9613 53.6613 98.5307 55.028 98.4227 55.5889C98.2747 56.3649 98.3694 58.4733 98.4214 59.3613C98.516 60.9812 98.8187 62.7999 99.276 64.3597C99.6867 64.9676 102.533 65.6707 103.397 66.4707C103.773 66.8197 103.809 67.1827 104.084 67.4837C105.103 68.604 109.693 70.5051 111.321 71.1999C111.785 71.3973 114.244 72.5212 114.471 72.2983ZM115.179 36.6531C115.4 36.9425 115.393 37.2931 115.423 37.6373C116.04 44.816 115.336 53.7504 115.219 61.0545C115.079 69.8359 114.881 78.5665 114.857 87.304C114.852 88.9921 115.309 91.64 114.097 92.7921C102.007 99.7879 89.8227 106.659 77.708 113.625C74.396 115.529 69.7254 118.907 66.4427 120.3C64.924 120.945 64.496 120.425 63.1654 119.733C57.2454 116.646 51.3267 112.788 45.4787 109.469C35.38 103.74 25.128 98.252 15.1254 92.3744L14.8507 36.7921L65.1174 8.13187C81.9534 17.3505 98.5734 27.0132 115.179 36.6531Z" fill="#231F20"/>
<path d="M8.07198 143.892H9.09203V147.726C8.14403 148.574 6.79331 149.005 5.39998 149.005C2.34131 149.005 0.0999756 146.836 0.0999756 143.892C0.0999756 140.948 2.34136 138.779 5.41469 138.779C6.93736 138.779 8.25866 139.268 9.14932 140.229L8.48936 140.905C7.64136 140.072 6.63603 139.726 5.4587 139.726C2.97337 139.726 1.14932 141.495 1.14932 143.892C1.14932 146.277 2.97332 148.057 5.44399 148.057C6.40665 148.057 7.29731 147.843 8.07198 147.281V143.892Z" fill="#040606"/>
<path d="M8.07198 143.892H9.09203V147.726C8.14403 148.574 6.79331 149.005 5.39998 149.005C2.34131 149.005 0.0999756 146.836 0.0999756 143.892C0.0999756 140.948 2.34136 138.779 5.41469 138.779C6.93736 138.779 8.25866 139.268 9.14932 140.229L8.48936 140.905C7.64136 140.072 6.63603 139.726 5.4587 139.726C2.97337 139.726 1.14932 141.495 1.14932 143.892C1.14932 146.277 2.97332 148.057 5.44399 148.057C6.40665 148.057 7.29731 147.843 8.07198 147.281V143.892Z" stroke="#040606" stroke-width="0.2" stroke-miterlimit="10"/>
<path d="M20.8667 145.372L18.4534 139.972L16.04 145.372H20.8667ZM21.2547 146.233H15.652L14.4467 148.92H13.34L17.936 138.865H18.9853L23.5814 148.92H22.4613L21.2547 146.233Z" fill="#040606"/>
<path d="M20.8667 145.372L18.4534 139.972L16.04 145.372H20.8667ZM21.2547 146.233H15.652L14.4467 148.92H13.34L17.936 138.865H18.9853L23.5814 148.92H22.4613L21.2547 146.233Z" stroke="#040606" stroke-width="0.2" stroke-miterlimit="10"/>
<path d="M27.8014 144.625V138.865H28.864V144.583C28.864 146.967 29.984 148.057 31.9387 148.057C33.9054 148.057 35.0267 146.967 35.0267 144.583V138.865H36.0614V144.625C36.0614 147.512 34.5094 149.005 31.9387 149.005C29.3667 149.005 27.8014 147.512 27.8014 144.625Z" fill="#040606"/>
<path d="M27.8014 144.625V138.865H28.864V144.583C28.864 146.967 29.984 148.057 31.9387 148.057C33.9054 148.057 35.0267 146.967 35.0267 144.583V138.865H36.0614V144.625C36.0614 147.512 34.5094 149.005 31.9387 149.005C29.3667 149.005 27.8014 147.512 27.8014 144.625Z" stroke="#040606" stroke-width="0.2" stroke-miterlimit="10"/>
<path d="M41.1561 147.698L41.572 146.881C42.2907 147.584 43.568 148.101 44.8907 148.101C46.772 148.101 47.5907 147.312 47.5907 146.32C47.5907 143.561 41.4 145.257 41.4 141.537C41.4 140.057 42.5494 138.779 45.1054 138.779C46.24 138.779 47.4187 139.11 48.2227 139.669L47.864 140.517C47.0013 139.957 45.996 139.684 45.1054 139.684C43.2667 139.684 42.4494 140.503 42.4494 141.508C42.4494 144.267 48.6387 142.6 48.6387 146.262C48.6387 147.741 47.4614 149.005 44.8907 149.005C43.3827 149.005 41.9027 148.474 41.1561 147.698Z" fill="#040606"/>
<path d="M41.1561 147.698L41.572 146.881C42.2907 147.584 43.568 148.101 44.8907 148.101C46.772 148.101 47.5907 147.312 47.5907 146.32C47.5907 143.561 41.4 145.257 41.4 141.537C41.4 140.057 42.5494 138.779 45.1054 138.779C46.24 138.779 47.4187 139.11 48.2227 139.669L47.864 140.517C47.0013 139.957 45.996 139.684 45.1054 139.684C43.2667 139.684 42.4494 140.503 42.4494 141.508C42.4494 144.267 48.6387 142.6 48.6387 146.262C48.6387 147.741 47.4614 149.005 44.8907 149.005C43.3827 149.005 41.9027 148.474 41.1561 147.698Z" stroke="#040606" stroke-width="0.2" stroke-miterlimit="10"/>
<path d="M74.2307 138.865L70.84 148.92H69.72L66.7747 140.344L63.816 148.92H62.7107L59.3214 138.865H60.4133L63.3133 147.512L66.3147 138.865H67.308L70.2654 147.555L73.2094 138.865H74.2307Z" fill="#040606"/>
<path d="M74.2307 138.865L70.84 148.92H69.72L66.7747 140.344L63.816 148.92H62.7107L59.3214 138.865H60.4133L63.3133 147.512L66.3147 138.865H67.308L70.2654 147.555L73.2094 138.865H74.2307Z" stroke="#040606" stroke-width="0.2" stroke-miterlimit="10"/>
<path d="M87.5401 143.892C87.5401 141.495 85.7454 139.726 83.332 139.726C80.9054 139.726 79.0947 141.495 79.0947 143.892C79.0947 146.291 80.9054 148.057 83.332 148.057C85.7454 148.057 87.5401 146.291 87.5401 143.892ZM78.0467 143.892C78.0467 140.962 80.2867 138.779 83.332 138.779C86.3494 138.779 88.604 140.948 88.604 143.892C88.604 146.836 86.3494 149.005 83.332 149.005C80.2867 149.005 78.0467 146.822 78.0467 143.892Z" fill="#040606"/>
<path d="M87.5401 143.892C87.5401 141.495 85.7454 139.726 83.332 139.726C80.9054 139.726 79.0947 141.495 79.0947 143.892C79.0947 146.291 80.9054 148.057 83.332 148.057C85.7454 148.057 87.5401 146.291 87.5401 143.892ZM78.0467 143.892C78.0467 140.962 80.2867 138.779 83.332 138.779C86.3494 138.779 88.604 140.948 88.604 143.892C88.604 146.836 86.3494 149.005 83.332 149.005C80.2867 149.005 78.0467 146.822 78.0467 143.892Z" stroke="#040606" stroke-width="0.2" stroke-miterlimit="10"/>
<path d="M102.445 143.892C102.445 141.495 100.649 139.726 98.2374 139.726C95.8107 139.726 94 141.495 94 143.892C94 146.291 95.8107 148.057 98.2374 148.057C100.649 148.057 102.445 146.291 102.445 143.892ZM92.952 143.892C92.952 140.962 95.1934 138.779 98.2374 138.779C101.255 138.779 103.509 140.948 103.509 143.892C103.509 146.836 101.255 149.005 98.2374 149.005C95.1934 149.005 92.952 146.822 92.952 143.892Z" fill="#040606"/>
<path d="M102.445 143.892C102.445 141.495 100.649 139.726 98.2374 139.726C95.8107 139.726 94 141.495 94 143.892C94 146.291 95.8107 148.057 98.2374 148.057C100.649 148.057 102.445 146.291 102.445 143.892ZM92.952 143.892C92.952 140.962 95.1934 138.779 98.2374 138.779C101.255 138.779 103.509 140.948 103.509 143.892C103.509 146.836 101.255 149.005 98.2374 149.005C95.1934 149.005 92.952 146.822 92.952 143.892Z" stroke="#040606" stroke-width="0.2" stroke-miterlimit="10"/>
<path d="M112.784 148C115.456 148 117.18 146.305 117.18 143.892C117.18 141.48 115.456 139.784 112.784 139.784H109.811V148H112.784ZM108.749 138.865H112.841C116.059 138.865 118.228 140.934 118.228 143.892C118.228 146.85 116.059 148.92 112.841 148.92H108.749V138.865Z" fill="#040606"/>
<path d="M112.784 148C115.456 148 117.18 146.305 117.18 143.892C117.18 141.48 115.456 139.784 112.784 139.784H109.811V148H112.784ZM108.749 138.865H112.841C116.059 138.865 118.228 140.934 118.228 143.892C118.228 146.85 116.059 148.92 112.841 148.92H108.749V138.865Z" stroke="#040606" stroke-width="0.2" stroke-miterlimit="10"/>
<path d="M122.504 147.698L122.921 146.881C123.64 147.584 124.919 148.101 126.24 148.101C128.121 148.101 128.939 147.312 128.939 146.32C128.939 143.561 122.749 145.257 122.749 141.537C122.749 140.057 123.899 138.779 126.455 138.779C127.589 138.779 128.767 139.11 129.572 139.669L129.212 140.517C128.351 139.957 127.345 139.684 126.455 139.684C124.616 139.684 123.797 140.503 123.797 141.508C123.797 144.267 129.988 142.6 129.988 146.262C129.988 147.741 128.811 149.005 126.24 149.005C124.731 149.005 123.252 148.474 122.504 147.698Z" fill="#040606"/>
<path d="M122.504 147.698L122.921 146.881C123.64 147.584 124.919 148.101 126.24 148.101C128.121 148.101 128.939 147.312 128.939 146.32C128.939 143.561 122.749 145.257 122.749 141.537C122.749 140.057 123.899 138.779 126.455 138.779C127.589 138.779 128.767 139.11 129.572 139.669L129.212 140.517C128.351 139.957 127.345 139.684 126.455 139.684C124.616 139.684 123.797 140.503 123.797 141.508C123.797 144.267 129.988 142.6 129.988 146.262C129.988 147.741 128.811 149.005 126.24 149.005C124.731 149.005 123.252 148.474 122.504 147.698Z" stroke="#040606" stroke-width="0.2" stroke-miterlimit="10"/>
<path d="M10.2827 154.132V157.152H9.97603V154.736L8.78938 156.768H8.63866L7.45337 154.749V157.152H7.14667V154.132H7.40936L8.72004 156.371L10.0187 154.132H10.2827Z" fill="#040606"/>
<path d="M15.6827 156.086L14.9587 154.464L14.2333 156.086H15.6827ZM15.7987 156.345H14.1174L13.7547 157.152H13.4227L14.8027 154.132H15.1174L16.4973 157.152H16.1613L15.7987 156.345Z" fill="#040606"/>
<path d="M21.6827 155.167C21.6827 154.684 21.3627 154.408 20.76 154.408H19.9574V155.922H20.76C21.3627 155.922 21.6827 155.643 21.6827 155.167ZM21.7 157.152L21.0094 156.181C20.9321 156.189 20.8547 156.195 20.7681 156.195H19.9574V157.152H19.6374V154.132H20.7681C21.5361 154.132 22.0014 154.52 22.0014 155.167C22.0014 155.643 21.7521 155.974 21.3121 156.116L22.0494 157.152H21.7Z" fill="#040606"/>
<path d="M25.128 155.643C25.128 154.759 25.8014 154.107 26.712 154.107C27.152 154.107 27.548 154.253 27.816 154.547L27.612 154.749C27.3667 154.498 27.0654 154.391 26.72 154.391C25.992 154.391 25.4427 154.926 25.4427 155.643C25.4427 156.359 25.992 156.892 26.72 156.892C27.0654 156.892 27.3667 156.784 27.612 156.531L27.816 156.733C27.548 157.026 27.152 157.177 26.7067 157.177C25.8014 157.177 25.128 156.526 25.128 155.643Z" fill="#040606"/>
<path d="M33.272 156.876V157.152H31.136V154.132H33.2067V154.408H31.456V155.483H33.0174V155.755H31.456V156.876H33.272Z" fill="#040606"/>
<path d="M39.1853 154.132V157.152H38.9213L36.9814 154.703V157.152H36.6613V154.132H36.924L38.8693 156.583V154.132H39.1853Z" fill="#040606"/>
<path d="M44.5853 156.086L43.86 154.464L43.136 156.086H44.5853ZM44.7014 156.345H43.0187L42.6573 157.152H42.3254L43.7053 154.132H44.02L45.4 157.152H45.064L44.7014 156.345Z" fill="#040606"/>
<path d="M50.5854 155.167C50.5854 154.684 50.2653 154.408 49.6613 154.408H48.86V155.922H49.6613C50.2653 155.922 50.5854 155.643 50.5854 155.167ZM50.6027 157.152L49.912 156.181C49.8347 156.189 49.7574 156.195 49.6707 156.195H48.86V157.152H48.54V154.132H49.6707C50.4374 154.132 50.904 154.52 50.904 155.167C50.904 155.643 50.6547 155.974 50.2133 156.116L50.952 157.152H50.6027Z" fill="#040606"/>
<path d="M54.2973 154.132H54.6174V157.152H54.2973V154.132Z" fill="#040606"/>
<path d="M60.016 156.086L59.2907 154.464L58.5667 156.086H60.016ZM60.132 156.345H58.4507L58.088 157.152H57.756L59.136 154.132H59.4507L60.8307 157.152H60.4946L60.132 156.345Z" fill="#040606"/>
<path d="M70.8747 154.132V157.152H70.5693V154.736L69.3827 156.768H69.232L68.0454 154.749V157.152H67.7401V154.132H68.0027L69.3134 156.371L70.6121 154.132H70.8747Z" fill="#040606"/>
<path d="M74.4987 154.132H74.8174V157.152H74.4987V154.132Z" fill="#040606"/>
<path d="M80.9627 154.132V157.152H80.6987L78.7587 154.703V157.152H78.4401V154.132H78.7027L80.6481 156.583V154.132H80.9627Z" fill="#040606"/>
<path d="M84.5853 154.132H84.9053V157.152H84.5853V154.132Z" fill="#040606"/>
<path d="M91.6627 154.132V157.152H91.356V154.736L90.1707 156.768H90.0187L88.8333 154.749V157.152H88.5267V154.132H88.7907L90.1013 156.371L91.4 154.132H91.6627Z" fill="#040606"/>
<path d="M97.0627 156.086L96.3387 154.464L95.6134 156.086H97.0627ZM97.18 156.345H95.4973L95.1347 157.152H94.8027L96.1841 154.132H96.4973L97.8773 157.152H97.5413L97.18 156.345Z" fill="#040606"/>
<path d="M101.019 154.132H101.337V156.876H103.027V157.152H101.019V154.132Z" fill="#040606"/>
<path d="M106.197 154.132H106.517V157.152H106.197V154.132Z" fill="#040606"/>
<path d="M109.851 156.784L109.975 156.54C110.189 156.75 110.575 156.905 110.971 156.905C111.536 156.905 111.783 156.668 111.783 156.371C111.783 155.543 109.923 156.052 109.923 154.934C109.923 154.491 110.268 154.107 111.036 154.107C111.376 154.107 111.731 154.207 111.971 154.374L111.864 154.628C111.605 154.46 111.303 154.379 111.036 154.379C110.484 154.379 110.239 154.624 110.239 154.926C110.239 155.755 112.097 155.255 112.097 156.353C112.097 156.797 111.743 157.177 110.971 157.177C110.519 157.177 110.075 157.017 109.851 156.784Z" fill="#040606"/>
<path d="M115.973 154.408H114.912V154.132H117.353V154.408H116.293V157.152H115.973V154.408Z" fill="#040606"/>
<path d="M122.128 156.086L121.404 154.464L120.679 156.086H122.128ZM122.244 156.345H120.563L120.2 157.152H119.868L121.248 154.132H121.563L122.943 157.152H122.607L122.244 156.345Z" fill="#040606"/>
</svg>
